<?xml version="1.0" standalone="no"?>
<!DOCTYPE svg PUBLIC "-//W3C//DTD SVG 20010904//EN"
 "http://www.w3.org/TR/2001/REC-SVG-20010904/DTD/svg10.dtd">
<svg version="1.0" xmlns="http://www.w3.org/2000/svg"
 width="700.000000pt" height="700.000000pt" viewBox="0 0 700.000000 700.000000"
 preserveAspectRatio="xMidYMid meet">
<metadata>
Created by potrace 1.11, written by Peter Selinger 2001-2013
</metadata>
<g transform="translate(0.000000,700.000000) scale(0.100000,-0.100000)"
fill="#000000" stroke="none">
<path d="M1845 6993 c-604 -65 -1117 -371 -1478 -881 -20 -28 -37 -55 -37 -59
0 -3 -6 -14 -14 -22 -8 -9 -46 -77 -84 -151 -112 -218 -190 -476 -219 -725
-10 -88 -11 -3658 0 -3743 27 -226 119 -485 243 -680 121 -189 312 -379 504
-498 150 -94 370 -181 505 -201 17 -2 37 -6 45 -9 52 -18 336 -26 450 -12 520
61 988 395 1224 873 144 290 172 443 175 939 1 184 3 343 5 353 2 10 7 40 11
67 34 235 171 459 555 911 308 362 445 553 566 795 109 217 169 407 208 653
26 162 26 485 0 667 -54 383 -169 670 -375 935 -118 152 -261 281 -429 389
-25 16 -57 37 -71 47 -39 26 -243 122 -334 157 -135 51 -396 123 -510 139 -16
2 -68 10 -115 18 -47 8 -119 17 -160 21 -41 4 -88 8 -105 10 -41 5 -523 11
-560 7z m560 -417 c17 -2 57 -7 90 -10 131 -14 289 -42 419 -76 219 -56 408
-137 568 -243 108 -71 137 -95 234 -194 177 -180 300 -421 360 -708 33 -159
48 -447 31 -608 -28 -262 -115 -509 -270 -766 -51 -86 -221 -318 -293 -402
-21 -25 -59 -69 -84 -99 -25 -30 -72 -86 -106 -125 -393 -455 -561 -773 -598
-1130 -3 -27 -6 -196 -7 -375 -1 -356 -12 -462 -64 -617 -96 -286 -306 -534
-570 -676 -85 -45 -242 -102 -311 -113 -22 -3 -59 -10 -84 -15 -59 -11 -290
-4 -360 11 -154 33 -321 105 -440 189 -85 59 -224 199 -282 281 -112 159 -182
334 -215 536 -10 63 -11 3609 0 3689 64 506 348 958 767 1222 114 71 338 171
417 186 10 2 31 7 46 12 121 33 237 43 477 39 135 -2 259 -6 275 -8z"/>
<path d="M1875 6169 c-170 -23 -352 -93 -508 -196 -89 -59 -247 -215 -312
-308 -90 -130 -171 -315 -205 -470 -22 -99 -25 -177 -25 -625 l0 -454 240 -2
c214 -1 246 -3 297 -22 164 -59 268 -198 274 -366 7 -172 -78 -317 -228 -389
-72 -34 -103 -40 -248 -42 -69 -2 -127 -3 -130 -4 -4 -1 -5 -360 -1 -396 1 -7
54 -10 154 -9 152 1 287 23 357 59 14 7 39 19 55 26 57 25 150 93 211 154 168
165 253 381 241 614 -6 120 -10 141 -38 224 -56 165 -151 295 -294 402 -126
93 -258 142 -435 160 -19 2 -39 4 -44 4 -4 1 -6 121 -3 269 5 307 14 361 92
517 111 225 311 384 546 436 84 19 114 20 279 15 102 -4 201 -9 220 -11 19 -2
60 -7 90 -10 30 -4 64 -8 75 -11 11 -2 31 -6 45 -8 279 -46 501 -164 612 -323
115 -167 139 -571 48 -804 -65 -165 -187 -346 -390 -579 -328 -376 -536 -783
-678 -1325 -22 -82 -49 -174 -61 -204 -59 -146 -208 -298 -361 -368 -85 -39
-145 -55 -253 -68 -31 -4 -57 -12 -59 -19 -2 -6 -3 -96 -3 -201 l1 -190 54 0
c308 -3 687 203 882 480 83 117 163 296 182 406 9 57 85 316 106 364 5 11 27
66 49 123 106 267 242 491 437 717 434 504 567 800 558 1240 -3 139 -10 214
-30 308 -58 281 -218 503 -469 653 -186 111 -455 191 -740 219 -33 4 -71 8
-85 11 -56 9 -440 12 -505 3z"/>
<path d="M6133 4888 l-143 -143 38 -40 c141 -150 268 -334 355 -515 51 -106
138 -345 151 -415 3 -17 10 -55 16 -85 6 -30 12 -66 15 -80 27 -138 27 -434 1
-625 -13 -92 -71 -326 -95 -380 -5 -11 -23 -56 -41 -100 -17 -44 -52 -118 -77
-165 -43 -81 -148 -249 -162 -260 -4 -3 -14 -16 -22 -30 -9 -14 -52 -66 -97
-116 l-80 -91 144 -144 144 -144 43 45 c111 117 294 355 315 410 3 8 16 29 28
47 34 50 130 252 170 354 33 87 89 270 100 329 3 14 9 43 14 65 5 22 12 63 15
90 4 28 10 66 14 85 16 76 21 418 8 550 -10 103 -31 243 -43 282 -3 10 -7 30
-10 45 -11 62 -69 245 -111 353 -110 281 -279 546 -492 773 -25 26 -47 47 -51
47 -3 0 -69 -64 -147 -142z"/>
<path d="M5554 4308 l-142 -143 59 -69 c154 -180 254 -399 286 -624 10 -64 10
-273 0 -347 -21 -178 -115 -412 -221 -550 -16 -22 -51 -65 -77 -96 l-48 -55
145 -145 145 -144 46 50 c25 28 57 66 72 85 14 19 29 37 32 40 18 14 105 156
149 242 46 89 126 304 136 367 5 27 10 57 20 101 19 93 26 358 12 470 -42 329
-176 630 -392 883 -37 42 -70 77 -74 77 -4 0 -71 -64 -148 -142z"/>
<path d="M4973 3728 l-142 -143 26 -30 c13 -16 38 -59 55 -94 59 -127 44 -283
-41 -403 l-39 -56 143 -142 c80 -80 148 -140 154 -136 21 13 104 129 135 189
71 136 97 256 91 422 -7 187 -63 333 -188 488 -22 26 -42 47 -46 47 -3 0 -70
-64 -148 -142z"/>
</g>
</svg>
