<svg width="512" height="512" xmlns="http://www.w3.org/2000/svg">

 <g>
  <title>background</title>
  <rect fill="none" id="canvas_background" height="402" width="582" y="-1" x="-1"/>
 </g>
 <g>
  <title>Layer 1</title>
  <g id="svg_1">
   <g id="svg_2">
    <path fill="#ffffff" id="svg_3" d="m459.321991,143.720993l-21.213013,21.212997c58.484009,58.485001 58.484009,153.647003 0,212.132996l21.213013,21.213013c70.182037,-70.182007 70.182037,-184.375992 0,-254.559006z"/>
   </g>
  </g>
  <g id="svg_4">
   <g id="svg_5">
    <path fill="#ffffff" id="svg_6" d="m416.894989,186.147003l-21.213013,21.212997c35.091003,35.091003 35.091003,92.188004 0,127.279007l21.213013,21.212982c46.788025,-46.786987 46.788025,-122.916992 0,-169.704987z"/>
   </g>
  </g>
  <g id="svg_7">
   <g id="svg_8">
    <path fill="#ffffff" id="svg_9" d="m374.467987,228.572998l-21.212982,21.214005c5.665985,5.666 8.786987,13.199997 8.786987,21.212997s-3.121002,15.546997 -8.786987,21.213013l21.212982,21.213989c11.333008,-11.333008 17.574005,-26.399994 17.574005,-42.427002c0,-16.026993 -6.240997,-31.093994 -17.574005,-42.427002z"/>
   </g>
  </g>
  <g id="svg_10">
   <g id="svg_11">
    <path fill="#ffffff" id="svg_12" d="m148.376007,0c-81.792007,0 -148.334007,68.250999 -148.334007,152.143005l0,242c0,64.985992 51.589001,117.856995 115,117.856995c63.961998,0 116.000008,-52.871002 116.000008,-117.856995l0,-34.28598c0,-29.481018 18.866989,-51.624023 40.712997,-77.262024c27.790009,-32.613998 59.286987,-69.580002 59.286987,-130.451996c0,-98.111004 -64.871979,-152.143005 -182.665985,-152.143005zm100.543991,263.138c-23.537994,27.625 -47.877991,56.190002 -47.877991,96.718994l0,34.286011c0,48.444 -38.580002,87.856995 -86.000008,87.856995c-46.869003,0 -85,-39.412994 -85,-87.856995l0,-242c0,-67.350006 53.084,-122.143005 118.334007,-122.143005c101.302002,0 152.666992,41.095001 152.666992,122.143005c-0.001007,49.82399 -26.497986,80.92099 -52.123001,110.994995z"/>
   </g>
  </g>
  <g id="svg_13">
   <g id="svg_14">
    <path fill="#ffffff" id="svg_15" d="m253.617004,93.722c-19.367004,-22.691002 -53.794006,-33.722 -105.24501,-33.722c-48.706001,0 -88.330006,41.333 -88.330006,92.139008l0,58.860992l30.000004,0c16.542,0 30,13.457993 30,30s-13.458,30 -30,30l-15,0l0,30l15,0c33.084,0 60,-26.915985 60,-60s-26.916,-60 -60,-60l0,-28.860992c0,-34.263008 26.167,-62.139008 58.330002,-62.139008c41.556,0 69.28801,7.806 82.427002,23.199997c10.243011,12.000999 10.243011,27.570999 10.243011,38.939011c0,25.686996 -11.390015,41.509995 -37.378006,71.490997c-21.033005,24.259003 -37.977005,59.975983 -46.488007,97.992981c-5.153,23.019012 -27.565002,40.377014 -52.133995,40.377014l0,30c18.418999,0 36.760994,-6.329987 51.646004,-17.824005c15.175995,-11.71698 25.746002,-28.053986 29.763,-46c7.350998,-32.834991 22.259003,-64.571991 39.87999,-84.895996c27.007004,-31.156998 44.709991,-54.332993 44.709991,-91.143005c0,-13.279999 0,-37.998993 -17.423981,-58.414993z"/>
   </g>
  </g>
  <g id="svg_16"/>
  <g id="svg_17"/>
  <g id="svg_18"/>
  <g id="svg_19"/>
  <g id="svg_20"/>
  <g id="svg_21"/>
  <g id="svg_22"/>
  <g id="svg_23"/>
  <g id="svg_24"/>
  <g id="svg_25"/>
  <g id="svg_26"/>
  <g id="svg_27"/>
  <g id="svg_28"/>
  <g id="svg_29"/>
  <g id="svg_30"/>
 </g>
</svg>